<svg width="35" height="22" viewBox="0 0 35 22" fill="none" xmlns="http://www.w3.org/2000/svg">
<path d="M32.083 2.93333H21.8748V0H32.083V2.93333ZM34.6 17.6C33.9555 19.5023 31.6411 22 27.1612 22C22.6783 22 19.0471 19.4641 19.0471 13.6767C19.0471 7.942 22.4377 4.994 27.0182 4.994C31.5128 4.994 34.2573 7.6076 34.8567 11.4855C34.9705 12.2276 35.0157 13.2279 34.9952 14.6241H23.2893C23.4789 19.3336 28.3687 19.4817 29.9801 17.6H34.6ZM23.3914 11.7333H30.632C30.4788 9.4644 28.9753 8.4788 27.0197 8.4788C24.8818 8.4788 23.6991 9.6052 23.3914 11.7333ZM9.42948 21.9824H0V0.0307999H10.1397C18.1254 0.1496 18.2771 8.01533 14.1063 10.1596C19.1535 12.0076 19.3227 21.9824 9.42948 21.9824V21.9824ZM4.37495 8.8H9.60156C13.259 8.8 13.8394 4.4 9.14657 4.4H4.37495V8.8ZM9.32011 13.2H4.37495V17.6235H9.24719C13.7024 17.6235 13.4296 13.2 9.32011 13.2V13.2Z" fill="#C4C4C4"/>
</svg>
