<svg width="149" height="150" viewBox="0 0 149 150" fill="none" xmlns="http://www.w3.org/2000/svg">
<path d="M79 63.6517V116H69V60L79 63.6517Z" fill="black"/>
<path d="M40.0134 58.53C39.6474 45.0071 46.8374 38 56.2016 38C61.9277 38 66.2977 39.8159 75.5758 44.1526C82.3998 47.4212 87.3725 49.8352 92.4959 49.8352C97.6193 49.8352 99.6859 45.8403 99.7935 38.47H107.952C108.684 53.5738 100.891 59 92.3668 59C86.8989 59 82.0123 57.4191 72.6481 53.0824C66.1901 49.942 61.1958 47.1648 56.3308 47.1648C51.4657 47.1648 48.4089 50.5402 48.3012 58.765H40.0134V58.53Z" fill="black"/>
<rect x="4" y="4" width="141" height="142" stroke="black" stroke-width="8"/>
</svg>
