<svg width="36" height="22" viewBox="0 0 36 22" fill="none" xmlns="http://www.w3.org/2000/svg">
<path fill-rule="evenodd" clip-rule="evenodd" d="M35.1743 1.922C35.4233 1.103 35.1743 0.5 33.9818 0.5H30.0444C29.0424 0.5 28.5804 1.0205 28.3299 1.595C28.3299 1.595 26.3274 6.389 23.491 9.503C22.573 10.406 22.156 10.6925 21.655 10.6925C21.4045 10.6925 21.0281 10.406 21.0281 9.5855V1.922C21.0281 0.938 20.7521 0.5 19.9181 0.5H13.7262C13.1007 0.5 12.7242 0.956 12.7242 1.3895C12.7242 2.321 14.1432 2.537 14.2887 5.159V10.856C14.2887 12.1055 14.0592 12.332 13.5582 12.332C12.2232 12.332 8.97581 7.5155 7.04835 2.0045C6.67486 0.932 6.29687 0.5 5.29039 0.5H1.34997C0.224995 0.5 0 1.0205 0 1.595C0 2.618 1.33497 7.7 6.21737 14.4215C9.4723 19.0115 14.0547 21.5 18.2291 21.5C20.7326 21.5 21.0416 20.948 21.0416 19.9955V16.526C21.0416 15.4205 21.2786 15.2 22.072 15.2C22.657 15.2 23.6575 15.488 25.9945 17.7005C28.6644 20.324 29.1039 21.5 30.6069 21.5H34.5443C35.6693 21.5 36.2332 20.948 35.9092 19.856C35.5523 18.77 34.2773 17.1935 32.5868 15.323C31.6688 14.258 30.2919 13.1105 29.8734 12.536C29.2899 11.7995 29.4564 11.471 29.8734 10.8155C29.8734 10.8155 34.6733 4.1765 35.1728 1.922H35.1743Z" fill="#C4C4C4"/>
</svg>
